<?xml version="1.0" encoding="utf-8"?>
<!-- Generator: Adobe Illustrator 19.0.0, SVG Export Plug-In . SVG Version: 6.00 Build 0)  -->
<svg version="1.2" baseProfile="tiny" id="Ebene_1" xmlns="http://www.w3.org/2000/svg" xmlns:xlink="http://www.w3.org/1999/xlink"
	 x="0px" y="0px" viewBox="836 -470.1 2268.8 1780" xml:space="preserve">
<g>
	<title>Layer 1</title>
	<path id="path3307" fill="#FFFFFF" stroke="#595959" stroke-width="20" stroke-linecap="round" stroke-linejoin="bevel" d="
		M1350.7-288.4c-18.1,0.4-36.8,5.5-56,15.5c-20.6,36.1-33.5,72.2-46.5,108.4C1159.6-152.7,1074.7-114,983.7-53
		c-9.8,9.8-13.7,31.7-11.5,52.1c-17,17.3-28.2,35.8-31.4,55.2c-49.2,184.2-76.4,371.2-73.6,536.9c-4.6,269,75.5,474.6,280.6,533.6
		c2.5,0.7,5,1.4,7.5,2.1c0.8,0.2,1.7,0.4,2.5,0.6c0.5,0.1,1,0.2,1.5,0.2c0.6,0.1,1.1,0.2,1.7,0.2c0.5,0.1,1,0.1,1.4,0.1
		c0.3,0,0.6,0.1,0.9,0.1c0.1,0,0.1,0,0.2,0c0.2,0,0.5,0,0.7,0c0.5,0,1,0.1,1.5,0.1c0.1,0,0.3,0,0.4,0c0.9,0,1.9,0,2.8,0l0,0l0,0
		c0.9,0,1.9-0.1,2.8-0.2h0.1c0.1,0,0.3,0,0.4,0c0.8-0.1,1.7-0.2,2.5-0.3c0.7-0.1,1.4-0.2,2.1-0.3c0.7-0.1,1.5-0.2,2.2-0.4
		c0.1,0,0.1,0,0.2,0c0.6-0.1,1.1-0.2,1.7-0.3c0.2,0,0.5-0.1,0.7-0.1c1.1-0.2,2.1-0.5,3.2-0.8c0.6-0.1,1.2-0.3,1.8-0.4
		c0.3-0.1,0.5-0.2,0.8-0.2c0.6-0.2,1.2-0.3,1.7-0.5s1.1-0.3,1.6-0.5c0.1,0,0.1,0,0.2-0.1c0.8-0.2,1.5-0.5,2.3-0.7
		c0.3-0.1,0.6-0.2,0.9-0.3c1-0.3,1.9-0.7,2.9-1c0.2-0.1,0.4-0.1,0.6-0.2c1.3-0.5,2.6-0.9,3.9-1.4c0.9-0.4,1.8-0.7,2.8-1.1
		c0.2-0.1,0.4-0.2,0.6-0.2c1.1-0.5,2.3-0.9,3.4-1.4c0.1,0,0.2-0.1,0.3-0.1c1.8-0.8,3.7-1.6,5.6-2.4c0.7-0.3,1.5-0.7,2.2-1
		c1.3-0.6,2.6-1.2,4-1.8c0,0,0,0,0.1,0c2.7-1.3,5.5-2.6,8.3-4s5.7-2.9,8.6-4.4c0,0,0,0,0.1,0c0.9-0.4,1.8-0.9,2.7-1.4
		c2.1-1.1,4.2-2.2,6.4-3.4c0.2-0.1,0.4-0.2,0.6-0.3c1.2-0.6,2.4-1.3,3.7-1.9c1.2-0.6,2.4-1.3,3.6-1.9c0.5-0.3,1.1-0.6,1.6-0.9
		c4.4-2.3,9.1-4.9,13.7-7.4c2.1-1.1,4.4-2.4,6.6-3.6c7.1-3.8,14.4-7.8,22.1-11.9c3.1-1.7,6.3-3.4,9.6-5.1c1.6-0.8,3.2-1.6,4.8-2.5
		c3.2-1.7,6.4-3.4,9.7-5.1c3.1-1.6,6.3-3.3,9.6-4.9c1-0.5,2.1-1,3.2-1.6c0.1,0,0.2-0.1,0.2-0.1c4-2,8.1-4.1,12.3-6.1
		c0.5-0.2,1-0.5,1.4-0.7c2.9-1.4,5.9-2.9,8.9-4.3c1.7-0.8,3.5-1.7,5.2-2.5c1-0.5,2-1,3-1.4c3.5-1.7,7-3.3,10.6-5
		c2.9-1.4,5.9-2.7,8.8-4.1c2-0.9,4.1-1.9,6.1-2.8c0.8-0.3,1.6-0.7,2.3-1c1.7-0.8,3.4-1.5,5.1-2.3c2.8-1.2,5.5-2.4,8.3-3.6
		c1.6-0.7,3.2-1.4,4.8-2.1c1.9-0.8,3.8-1.6,5.7-2.4c1.8-0.8,3.6-1.5,5.5-2.3c3.2-1.3,6.5-2.7,9.8-4.1c2-0.8,4.1-1.6,6.1-2.4
		c1.9-0.8,3.8-1.6,5.8-2.3c0.9-0.4,1.8-0.7,2.8-1.1c0.3-0.1,0.6-0.3,1-0.4c4.1-1.6,8.3-3.2,12.5-4.8c1.7-0.7,3.5-1.3,5.3-2
		c2.2-0.8,4.5-1.7,6.7-2.5c0.8-0.3,1.5-0.5,2.3-0.8c3.1-1.1,6.3-2.2,9.5-3.4c2.8-1,5.5-1.9,8.3-2.9c1-0.3,2-0.7,3-1
		c5.1-1.7,10.3-3.5,15.6-5.2c0.6-0.2,1.2-0.4,1.7-0.6c0.1,0,0.2-0.1,0.3-0.1c27.7,13.1,58.7,20.4,91.4,20.4
		c64.9,0,123.2-28.9,162.5-74.5c3.5-0.4,7-0.8,10.5-1.2c0.3,0,0.7-0.1,1-0.1c3.3-0.4,6.7-0.7,10-1.1c0.4,0,0.7-0.1,1.1-0.1
		c0.6-0.1,1.1-0.1,1.7-0.2c6.4-0.7,13-1.3,19.6-1.9c0.8-0.1,1.6-0.1,2.4-0.2c0.8-0.1,1.6-0.1,2.4-0.2c2.9-0.2,5.8-0.5,8.7-0.7
		c2.7-0.2,5.5-0.4,8.2-0.6c0.7-0.1,1.4-0.1,2.1-0.1c2.4-0.2,4.9-0.4,7.3-0.5c1.5-0.1,3-0.2,4.5-0.3c2.3-0.2,4.6-0.3,7-0.5
		c3.2-0.2,6.5-0.4,9.7-0.6c1.9-0.1,3.8-0.2,5.8-0.3c0.9,0,1.8-0.1,2.7-0.1c3.1-0.2,6.2-0.3,9.3-0.5c4-0.2,8.1-0.4,12.2-0.5
		c2.8-0.1,5.7-0.2,8.5-0.3c0.4,0,0.8,0,1.2,0c4-0.1,8-0.3,12-0.4c4.4-0.1,8.8-0.2,13.3-0.3s9-0.2,13.5-0.2c0.5,0,1,0,1.5,0
		c2.5,0,5.1,0,7.6-0.1c6-0.1,12.1-0.1,18.2-0.1c4,0,8,0,12,0c0.3,0,0.6,0,0.9,0c7.7,0.1,15.2,0.2,22.8,0.3c3,0.1,5.9,0.1,8.8,0.2
		c0.9,0,1.9,0,2.8,0.1c1.2,0,2.5,0.1,3.7,0.1c2.6,0.1,5.2,0.2,7.8,0.2c3.8,0.1,7.6,0.3,11.4,0.4c2.5,0.1,4.9,0.2,7.3,0.3
		c3.4,0.1,6.7,0.3,10.1,0.5c0.1,0,0.2,0,0.2,0c4,0.2,8,0.4,12,0.6c2.8,0.2,5.6,0.3,8.4,0.5c1.1,0.1,2.3,0.1,3.5,0.2
		c3.9,0.2,7.9,0.5,11.8,0.8c7.3,0.5,14.5,1,21.7,1.6c4.3,0.3,8.6,0.7,12.8,1.1c6.8,0.6,13.6,1.3,20.2,1.9
		c39.4,47.1,98.5,77.1,164.7,77.1c36,0,69.9-8.9,99.7-24.6c0.9,0.3,1.8,0.6,2.7,0.9c1.6,0.5,3.2,1,4.8,1.5c2.5,0.8,5,1.6,7.5,2.4
		h0.1c1.7,0.6,3.4,1.1,5.1,1.7c2,0.7,4,1.3,6,2c3.8,1.3,7.5,2.5,11.2,3.8c4.8,1.7,9.6,3.4,14.3,5.1c4.7,1.7,9.4,3.4,14,5.2
		c4.6,1.7,9.1,3.5,13.5,5.2c4.5,1.7,8.9,3.5,13.2,5.2c3.5,1.4,7,2.9,10.5,4.3c0.4,0.2,0.8,0.3,1.2,0.5c0.8,0.3,1.5,0.6,2.3,1
		c3.8,1.6,7.6,3.2,11.3,4.8c0.6,0.2,1.2,0.5,1.7,0.7c2.4,1,4.7,2.1,7.1,3.1c3,1.3,5.9,2.6,8.8,3.9c1.8,0.8,3.7,1.7,5.5,2.5
		c3.3,1.5,6.6,3,9.8,4.5c0.8,0.4,1.5,0.7,2.3,1.1c3.7,1.8,7.4,3.5,11.1,5.3c2.8,1.4,5.7,2.7,8.5,4.1c0.7,0.4,1.5,0.7,2.2,1.1
		c0.4,0.2,0.7,0.4,1.1,0.6c6.6,3.3,13.1,6.5,19.4,9.7c3.1,1.6,6.1,3.1,9.1,4.6c2.7,1.4,5.4,2.8,8,4.2c3.8,2,7.6,4,11.3,6
		c4.3,2.3,8.5,4.5,12.6,6.7c1.6,0.9,3.3,1.8,4.9,2.6c5.7,3.1,11,6,16.4,8.8c5.2,2.8,10.4,5.6,15.3,8.2c5.8,3.1,11.3,6,16.6,8.7
		c1.5,0.8,3,1.6,4.5,2.3c0.9,0.4,1.8,0.9,2.6,1.3c2.9,1.5,5.8,2.9,8.6,4.2c1,0.5,2,1,3,1.4c1.4,0.7,2.8,1.3,4.2,1.9
		c0.3,0.1,0.6,0.2,0.8,0.4c0,0,0.1,0,0.1,0.1c1.8,0.8,3.6,1.6,5.4,2.3c0.1,0,0.1,0.1,0.2,0.1c0.2,0.1,0.4,0.2,0.5,0.2
		c0.9,0.4,1.9,0.8,2.8,1.1c0.9,0.4,1.8,0.7,2.6,1c0.6,0.2,1.1,0.4,1.6,0.6c1.2,0.5,2.4,0.9,3.7,1.3c1.4,0.5,2.7,0.9,4,1.4
		c0.4,0.1,0.9,0.3,1.3,0.4c0.1,0,0.1,0,0.2,0c0.9,0.3,1.7,0.5,2.5,0.8c0.5,0.1,1,0.3,1.4,0.4c0.7,0.2,1.5,0.4,2.2,0.6
		c0.3,0.1,0.7,0.2,1,0.2c0.1,0,0.2,0.1,0.3,0.1c0.9,0.2,1.7,0.4,2.6,0.6c0.9,0.2,1.8,0.4,2.7,0.5c0.7,0.1,1.3,0.2,2,0.3
		c0.8,0.1,1.6,0.2,2.4,0.3c0.4,0,0.7,0.1,1.1,0.1c0.4,0,0.8,0.1,1.2,0.1h0.1c0.9,0.1,1.8,0.1,2.7,0.2c0.1,0,0.2,0,0.3,0
		c0.2,0,0.3,0,0.5,0c0.8,0,1.6,0,2.4,0c0.9,0,1.8,0,2.7-0.1h0.1c0.1,0,0.1,0,0.2,0c0.9-0.1,1.7-0.2,2.5-0.3c0.1,0,0.3,0,0.4,0
		c0.4,0,0.7-0.1,1.1-0.2c0.5-0.1,0.9-0.1,1.4-0.2c0.9-0.2,1.8-0.3,2.7-0.6c2.5-0.7,5-1.4,7.5-2.1
		c205.3-59.1,285.4-265.1,280.6-534.6c2.7-165.4-24.5-352.1-73.6-535.9c-3.3-19.8-14.5-38.8-31.3-56.5c1.9-20-2-41.2-11.6-50.8
		c-91.1-61-175.9-99.8-264.5-111.5c-13.1-36.1-25.9-72.2-46.5-108.4c-44-22.9-84.9-19.9-123.4,5.4c-1.8,39.1,2.4,76.6,7.7,113.9
		c-17.2,12.1-29.1,36.2-45.3,36.2c0.6,0.9,1.1,1.7,1.6,2.6c-87.3,34-233.5,83.2-516.5,83.2c-274.6,0-433.3-47-518.1-80.6
		c1-1.7,2.1-3.4,3.2-5.2c-16.1,0-28-24.2-45.3-36.2c5.3-37.3,9.5-74.9,7.7-113.9C1396.4-281.8,1374-289,1350.7-288.4z"/>
	<path id="path3271" fill="#FFFFFF" d="M2710.5-117.4c-21.3-51.8-34.8-103.7-64.4-155.5c-44-22.9-84.9-19.9-123.4,5.4
		c-2.7,59.2,8.4,115,16.1,171.6L2710.5-117.4z"/>
	<path id="path3269" fill="#FFFFFF" d="M1230.3-117.4c21.3-51.8,34.8-103.7,64.4-155.5c44-22.9,84.9-19.9,123.4,5.4
		c2.7,59.2-8.4,115-16.1,171.6L1230.3-117.4z"/>
	<path id="path2386" fill="#ECECEC" d="M3000.1,54.2c129.1,483.9,107.3,986.8-214.5,1072.6c-85.8,21.5-257.4-214.5-815.2-214.5
		s-729.4,236-815.2,214.5C833.4,1041,811.6,538.1,940.7,54.2c21.5-128.7,396.2-217.4,450.5-193.1s214.5,107.3,579.2,107.3
		s502.4-81.8,579.2-107.3C2626.5-164.4,2978.7-74.5,3000.1,54.2z"/>
	<path id="path3189" fill="#D5D5D5" d="M940.7,118.5c-129.1,483.9-107.3,922.4,214.5,1008.3c85.8,21.5,257.4-214.5,815.2-214.5
		s729.4,236,815.2,214.5c321.8-85.8,343.6-524.4,214.5-1008.3c-42.9-128.7-396.1-153-450.5-128.7C2495.3,14.1,2335.1,140,1970.4,140
		S1468,15.3,1391.2-10.2S1032-18,940.7,118.5z"/>
	<path id="path3163" fill="#ECECEC" d="M1820.2,783.6c0,118.5-96,214.5-214.5,214.5s-214.5-96-214.5-214.5s96-214.5,214.5-214.5
		S1820.2,665.1,1820.2,783.6z"/>
	<path id="path3173" fill="#606060" fill-opacity="0.6698" d="M2485.3,783.6c0,94.8-76.8,171.6-171.6,171.6S2142,878.3,2142,783.6
		S2218.8,612,2313.6,612S2485.3,688.8,2485.3,783.6z"/>
	<path id="path3165" fill="#ECECEC" d="M2528.2,783.6c0,118.5-96,214.5-214.5,214.5s-214.5-96-214.5-214.5s96-214.5,214.5-214.5
		C2432.1,569,2528.2,665.1,2528.2,783.6z"/>
	<path id="path3167" fill="#ECECEC" d="M1412.6,440.3c0,118.5-96,214.5-214.5,214.5s-214.5-96-214.5-214.5s96-214.5,214.5-214.5
		S1412.6,321.9,1412.6,440.3z"/>
	<path id="path3169" fill="#7D7D7D" d="M1348.3,440.3c0,82.9-67.2,150.2-150.2,150.2S1048,523.3,1048,440.3s67.2-150.2,150.2-150.2
		S1348.3,357.4,1348.3,440.3z"/>
	<path id="path3171" fill="#7D7D7D" d="M1777.3,783.6c0,94.8-76.8,171.6-171.6,171.6s-171.6-76.8-171.6-171.6S1510.9,612,1605.7,612
		C1700.5,611.9,1777.3,688.8,1777.3,783.6z"/>
	<path id="path3175" fill="#3FBF00" d="M2120.6,397.4c0.1,77-62.3,139.5-139.3,139.5c-77,0.1-139.5-62.3-139.5-139.3
		c0-0.1,0-0.1,0-0.2c-0.1-77,62.3-139.5,139.3-139.5c77-0.1,139.5,62.3,139.5,139.3C2120.6,397.3,2120.6,397.4,2120.6,397.4z"/>
	<path id="rect3177" fill="#F7F7F7" d="M1680.8,370.6h42.9c23.7,0,42.9,19.2,42.9,42.9v5.4c0,23.7-19.2,42.9-42.9,42.9h-42.9
		c-23.7,0-42.9-19.2-42.9-42.9v-5.4C1637.9,389.8,1657.1,370.6,1680.8,370.6z"/>
	<path id="rect3179" fill="#F7F7F7" d="M2226.6,370.6h42.9c23.7,0,42.9,19.2,42.9,42.9v5.4c0,23.7-19.2,42.9-42.9,42.9h-42.9
		c-23.7,0-42.9-19.2-42.9-42.9v-5.4C2183.7,389.8,2202.9,370.6,2226.6,370.6z"/>
	<path id="path3181" fill="#003CBE" d="M2674.1,365.2c0,50.4-40.8,91.2-91.2,91.2s-91.2-40.8-91.2-91.2s40.8-91.2,91.2-91.2
		S2674.1,314.9,2674.1,365.2z"/>
	<path id="path3183" fill="#F2C813" d="M2844.6,199c0,50.4-40.8,91.2-91.2,91.2s-91.2-40.8-91.2-91.2s40.8-91.2,91.2-91.2
		S2844.6,148.6,2844.6,199z"/>
	<path id="path3185" fill="#E5340A" d="M3010.8,365.2c0,50.4-40.8,91.2-91.2,91.2s-91.2-40.8-91.2-91.2s40.8-91.2,91.2-91.2
		S3010.8,314.9,3010.8,365.2z"/>
	<path id="path3187" fill="#2FA01E" d="M2844.6,542.2c0,50.4-40.8,91.2-91.2,91.2s-91.2-40.8-91.2-91.2s40.8-91.2,91.2-91.2
		S2844.6,491.9,2844.6,542.2z"/>
	<path id="path3191" fill="#FFFFFF" stroke="#595959" stroke-width="20" stroke-linecap="round" stroke-linejoin="bevel" d="
		M2528.2-53.1c-20.9-19.2-29-42.8-42.9-64.4c21.5,0,35.4-42.8,64.4-42.9c144.8-26.8,269,14.4,407.6,107.3
		c16.1,16.1,16.1,64.4,0,85.8C2801.7-85.3,2705.1-69.2,2528.2-53.1z"/>
	<path id="path3197" fill="#FFFFFF" stroke="#595959" stroke-width="20" stroke-linecap="round" stroke-linejoin="bevel" d="
		M1412.6-53.1c20.9-19.2,29-42.8,42.9-64.4c-21.5,0-35.4-42.8-64.4-42.9c-144.8-26.8-269,14.4-407.6,107.3
		c-16.1,16.1-16.1,64.4,0,85.8C1139.1-85.3,1235.7-69.2,1412.6-53.1z"/>
	<path id="path3277" fill="#545454" d="M1208.8,322.3c0,5.9-4.8,10.7-10.7,10.7s-10.7-4.8-10.7-10.7s4.8-10.7,10.7-10.7
		S1208.8,316.4,1208.8,322.3z"/>
	<path id="path3279" fill="#545454" d="M1208.8,558.3c0,5.9-4.8,10.7-10.7,10.7s-10.7-4.8-10.7-10.7s4.8-10.7,10.7-10.7
		S1208.8,552.4,1208.8,558.3z"/>
	<path id="path3281" fill="#545454" d="M1326.8,440.3c0,5.9-4.8,10.7-10.7,10.7c-5.9,0-10.7-4.8-10.7-10.7c0-5.9,4.8-10.7,10.7-10.7
		S1326.8,434.4,1326.8,440.3z"/>
	<path id="path3283" fill="#545454" d="M1090.9,440.3c0,5.9-4.8,10.7-10.7,10.7s-10.7-4.8-10.7-10.7c0-5.9,4.8-10.7,10.7-10.7
		S1090.9,434.4,1090.9,440.3z"/>
	<path id="path3285" fill="#7D7D7D" d="M2463.8,783.6c0,82.9-67.2,150.2-150.2,150.2c-82.9,0-150.2-67.2-150.2-150.2
		s67.2-150.2,150.2-150.2S2463.8,700.6,2463.8,783.6z"/>
	<path id="path3287" fill="#545454" d="M2324.4,665.6c0,5.9-4.8,10.7-10.7,10.7s-10.7-4.8-10.7-10.7s4.8-10.7,10.7-10.7
		S2324.4,659.7,2324.4,665.6z"/>
	<path id="path3289" fill="#545454" d="M2324.4,901.6c0,5.9-4.8,10.7-10.7,10.7s-10.7-4.8-10.7-10.7s4.8-10.7,10.7-10.7
		S2324.4,895.6,2324.4,901.6z"/>
	<path id="path3291" fill="#545454" d="M2442.4,783.6c0,5.9-4.8,10.7-10.7,10.7s-10.7-4.8-10.7-10.7s4.8-10.7,10.7-10.7
		C2437.5,772.8,2442.4,777.6,2442.4,783.6z"/>
	<path id="path3293" fill="#545454" d="M2206.4,783.6c0,5.9-4.8,10.7-10.7,10.7s-10.7-4.8-10.7-10.7s4.8-10.7,10.7-10.7
		S2206.4,777.6,2206.4,783.6z"/>
	<path id="path3331" fill="#FFFFFF" d="M1412.6-53.1c20.9-19.2,29-42.8,42.9-64.4c-21.5,0-35.4-42.8-64.4-42.9
		c-144.8-26.8-269,14.4-407.6,107.3c-16.1,16.1-16.1,64.4,0,85.8C1139.1-85.3,1235.7-69.2,1412.6-53.1z"/>
	<path id="path3333" fill="#FFFFFF" d="M2528.2-53.1c-20.9-19.2-29-42.8-42.9-64.4c21.5,0,35.4-42.8,64.4-42.9
		c144.8-26.8,269,14.4,407.6,107.3c16.1,16.1,16.1,64.4,0,85.8C2801.7-85.3,2705.1-69.2,2528.2-53.1z"/>
	<path id="path3335" fill="#D1D1D1" d="M1718.3,392.1l-42.9,26.8l42.9,26.8V392.1z"/>
	<path id="path3339" fill="#D1D1D1" d="M2233.2,392.1l42.9,26.8l-42.9,26.8V392.1z"/>
	<path id="path3341" fill="#567B44" d="M1981.1,258c-77,0-139.4,62.5-139.4,139.4s62.5,139.4,139.4,139.4
		c77,0,139.4-62.5,139.4-139.4S2058.1,258,1981.1,258z M1900.7,284.8l80.4,53.6l80.4-53.6l-59,91.2l75.1,118l-96.5-85.8l-96.5,85.8
		l75.1-118L1900.7,284.8z"/>
	<path id="path3353" fill="#545454" d="M1605.7,611.9c-96.5,0-48.3,69.7-75.1,96.5s-96.5-21.5-96.5,75.1s69.7,48.3,96.5,75.1
		s-21.5,96.5,75.1,96.5c96.5,0,48.3-69.7,75.1-96.5c26.8-26.8,96.5,21.5,96.5-75.1s-69.7-48.3-96.5-75.1
		C1654,681.7,1702.2,611.9,1605.7,611.9z"/>
	<path id="path3363" fill="#FFFFFF" fill-opacity="0.386" d="M2539.9,298.4l28.7,67l-28.7,67h28.7l14.4-33.4l14.4,33.4h28.7
		l-28.7-67l28.7-67h-28.7l-14.4,33.4l-14.4-33.4H2539.9z"/>
	<path id="path3371" fill="#FFFFFF" fill-opacity="0.386" d="M2742.7,472.8L2705.2,603h32.2l5.9-28.3h20.4l5.9,28.3h32.2
		l-37.5-130.2H2742.7z M2753.4,517.3l6.1,35.9h-12.3L2753.4,517.3z"/>
	<path id="path3376" fill="#FFFFFF" fill-opacity="0.386" d="M2705.1,136.9l32.2,75.1v55.1h32.2V212l32.2-75.1h-32.2l-16.1,37.5
		l-16.1-37.5L2705.1,136.9L2705.1,136.9z"/>
	<path id="path3378" fill="#FFFFFF" fill-opacity="0.386" d="M2888,301.2v128.3h34.3v-0.1c0.8,0.1,1.5,0.1,2.3,0.1
		c19,0,39.5-15.3,39.5-39.3c0-20.6-11.6-29.1-22.4-29.1c10.3-5.9,17.3-12.8,17.3-25.5c0-19-15.4-34.3-34.3-34.3
		c-0.8,0-1.5,0-2.3,0.1v-0.1L2888,301.2L2888,301.2z M2909.8,319.5h14.9h2.3l0,0c10.3,1.1,12.6,5.5,12.6,16.1
		c0,10.6-2.3,14.9-12.6,16.1l0,0h-2.3h-14.9v-16.1V319.5z M2909.8,374.3h14.9h2.3l0,0c10.2-0.2,18.1,5.2,18.1,15.8
		c0,10.6-7.7,18.2-18.1,18.1l0,0h-2.3h-14.9v-16.1V374.3z"/>
</g>
</svg>
